HIERARCHY
ROOT pelvis
{
  OFFSET 0 0 0
  CHANNELS 6 Xposition Yposition Zposition Zrotation Xrotation Yrotation
  JOINT pelvis_right_femur
  {
    OFFSET -11.43119 -3.542788 0.2090856
    CHANNELS 3 Zrotation Xrotation Yrotation
    JOINT right_femur_tibia
    {
      OFFSET -1.028693 -40.73281 5
      CHANNELS 3 Zrotation Xrotation Yrotation
      JOINT right_tibia_foot
      {
        OFFSET -0.5013517 -42.05707 -5
        CHANNELS 3 Zrotation Xrotation Yrotation
        End Site
        {
          OFFSET 0 -5 10
        }
      }
    }
  }
  JOINT pelvis_left_femur
  {
    OFFSET 11.43119 -3.542788 0.2090856
    CHANNELS 3 Zrotation Xrotation Yrotation
    JOINT left_femur_tibia
    {
      OFFSET 1.028693 -40.73281 5
      CHANNELS 3 Zrotation Xrotation Yrotation
      JOINT left_tibia_foot
      {
        OFFSET 0.3200228 -42.98253 -5
        CHANNELS 3 Zrotation Xrotation Yrotation
        End Site
        {
          OFFSET 0 -5 10
        }
      }
    }
  }
  JOINT pelvis_spine1
  {
    OFFSET 0 8.64413 -3.209807
    CHANNELS 3 Zrotation Xrotation Yrotation
    JOINT spine1
    {
      OFFSET 0 29.53957 -1.762685
      CHANNELS 3 Zrotation Xrotation Yrotation
      JOINT spine2
      {
        OFFSET 0 16.36153 -0.1422377
        CHANNELS 3 Zrotation Xrotation Yrotation
        JOINT neck
        {
          OFFSET 0 11.60093 5
          CHANNELS 3 Zrotation Xrotation Yrotation
          End Site
          {
            OFFSET 0 20 0
          }
        }
      }
      JOINT right_manubrium
      {
        OFFSET -4.671311 15.89868 4
        CHANNELS 3 Zrotation Xrotation Yrotation
        JOINT right_clavicle
        {
          OFFSET -13.601 1.573642 -2.74176
          CHANNELS 3 Zrotation Xrotation Yrotation
          JOINT right_humerus
          {
            OFFSET -0.06331682 -27.72702 2.252146
            CHANNELS 3 Zrotation Xrotation Yrotation
            JOINT right_radius
            {
              OFFSET -0.5696302 -23.92083 0.4042105
              CHANNELS 3 Zrotation Xrotation Yrotation
              End Site
              {
                OFFSET 0 -15 0
              }
            }
          }
        }
      }
      JOINT left_manubrium
      {
        OFFSET 4.671311 15.89868 4
        CHANNELS 3 Zrotation Xrotation Yrotation
        JOINT left_clavicle
        {
          OFFSET 13.601 1.573642 -2.74176
          CHANNELS 3 Zrotation Xrotation Yrotation
          JOINT left_humerus
          {
            OFFSET 0.000209614 -29.01858 1.101395
            CHANNELS 3 Zrotation Xrotation Yrotation
            JOINT left_radius
            {
              OFFSET -0.2288314 -24.59216 1.790347
              CHANNELS 3 Zrotation Xrotation Yrotation
              End Site
              {
                OFFSET 0 -15 0
              }
            }
          }
        }
      }
    }
  }
}
MOTION
Frames: 11
Frame Time: 0.0416666666667
-0.06720129 48.09732 -0.1390159 -2.738676 -22.13563 -0.7899313 -51.77964 -58.80153 -39.91904 -180 81.24943 -180 11.14104 2.33528 2.997186 61.84487 -50.42658 49.39275 -180 72.13368 -180 -7.132687 -7.417632 -12.07473 0.2773051 17.40461 4.531634 8.680156 15.36388 -8.037593 -17.39771 8.953301 24.56432 4.640608 -20.07135 16.12388 17.48124 -9.157782 25.57033 -62.76151 -32.8138 16.4026 0 -69.2601 0 14.26401 -11.15609 15.98346 -23.58146 -33.32498 1.857381 58.48431 -19.52106 -23.00069 0 -71.97647 0 -6.732649 -17.40877 13.77636
-0.1253112 48.07418 -0.1553351 -2.742188 -22.13795 -0.9078485 -51.86461 -58.86726 -40.12308 -180 81.23895 -180 11.12149 2.393207 3.076342 61.87902 -50.42547 49.32809 -180 72.13156 -180 -7.150827 -7.41064 -11.98368 0.341626 17.66893 4.495592 8.242721 15.55598 -7.818092 -17.44203 9.044595 25.53268 4.315251 -19.66137 17.36517 17.27999 -9.22623 24.93978 -63.29402 -31.89206 16.21425 0 -66.70524 0 15.336 -9.067904 17.79017 -22.82424 -34.46803 2.451561 59.96325 -18.39102 -20.54147 0 -69.59899 0 -6.753413 -17.90467 13.84946
-0.1661238 48.0518 -0.1634164 -2.742974 -22.09062 -0.9913011 -52.0062 -58.94573 -40.34075 -180 81.21805 -180 11.10846 2.428765 3.126538 61.92226 -50.46332 49.30975 -180 72.12564 -180 -7.168428 -7.411962 -11.91273 0.4092851 17.98388 4.443205 7.850665 15.73742 -7.641297 -17.4102 9.049804 26.28382 3.983285 -19.49985 18.40016 16.95188 -9.101049 24.43097 -63.64065 -31.01854 16.29154 0 -64.46669 0 16.3035 -7.080575 19.56284 -21.92829 -35.82267 2.788343 61.4477 -17.39328 -18.06244 0 -66.45449 0 -6.891984 -18.32213 13.93383
-0.1739853 48.05337 -0.1744455 -2.766494 -22.01451 -1.083883 -52.06668 -59.04903 -40.45415 -180 81.2096 -180 11.10321 2.445274 3.134014 61.98782 -50.49345 49.34192 -180 72.11315 -180 -7.179369 -7.41914 -11.86992 0.4259808 18.20901 4.2357 7.615858 15.75175 -7.653859 -17.35549 9.257024 26.98961 3.713594 -19.40088 19.42149 16.8585 -9.231842 24.14654 -63.68786 -30.81848 16.32641 0 -63.8205 0 17.0635 -5.589255 21.35207 -20.94364 -37.24963 2.916045 62.93743 -16.37874 -15.64168 0 -62.35586 0 -7.134937 -18.62097 14.05239
-0.1742754 48.05416 -0.147191 -2.779969 -21.90097 -1.119696 -52.11017 -59.17534 -40.50147 -180 81.19471 -180 11.10559 2.433625 3.094562 62.12839 -50.52458 49.48128 -180 72.08769 -180 -7.18415 -7.43119 -11.87318 0.3882047 18.42864 3.959447 7.496256 15.6442 -7.749848 -17.19964 9.528828 27.63834 3.540689 -19.42442 20.42288 16.90111 -9.520645 24.06517 -63.54064 -30.93468 16.25572 0 -63.84395 0 17.64504 -4.445683 22.98072 -19.92969 -38.69998 2.765639 64.35245 -15.42013 -13.39241 0 -57.40746 0 -7.502224 -18.80981 14.18651
-0.1799014 48.05678 -0.1005413 -2.795404 -21.75654 -1.091328 -52.12687 -59.31558 -40.49672 -180 81.16966 -180 11.11872 2.39129 3.00793 62.35453 -50.55719 49.73177 -180 72.06645 -180 -7.179642 -7.440196 -11.93452 0.2691625 18.66305 3.687165 7.477193 15.54518 -7.858904 -16.86608 9.771357 28.16863 3.495153 -19.58252 21.34363 16.94988 -9.672764 24.15943 -63.19522 -31.10452 16.30299 0 -64.10744 0 18.12249 -3.458963 24.48227 -18.9498 -40.16759 2.256034 65.65427 -14.60777 -11.36964 0 -51.74552 0 -8.000011 -18.8812 14.31827
-0.1644308 48.06507 -0.06044062 -2.831517 -21.58681 -1.026837 -52.10557 -59.44994 -40.44521 -180 81.14449 -180 11.13902 2.326785 2.879555 62.65452 -50.59418 50.07524 -180 72.04194 -180 -7.166228 -7.445681 -12.05109 0.0628362 18.89718 3.413208 7.577 15.48245 -8.05376 -16.40389 9.967516 28.57848 3.548458 -19.8427 22.15711 17.10701 -9.777254 24.21338 -62.78051 -31.20576 16.25923 0 -64.60734 0 18.47413 -2.6556 25.8512 -18.07401 -41.56276 1.548605 66.78766 -13.87638 -9.611876 0 -45.7613 0 -8.610532 -18.86714 14.42126
-0.1521109 48.07714 -0.02453511 -2.875778 -21.4034 -0.9028642 -52.06999 -59.56503 -40.37985 -180 81.12509 -180 11.164 2.247923 2.718399 63.01663 -50.64897 50.49692 -180 72.02996 -180 -7.142491 -7.443306 -12.21395 -0.1925613 19.10766 3.177536 7.742304 15.44352 -8.301954 -15.89779 10.13114 28.88383 3.649394 -20.16551 22.85217 17.31739 -9.859676 24.14468 -62.39457 -31.20565 16.11395 0 -65.25447 0 18.73808 -1.999523 27.09731 -17.27088 -42.86935 0.7961276 67.733 -13.29519 -8.106685 0 -40.07542 0 -9.31922 -18.81707 14.43357
-0.1264034 48.0962 0.01050377 -2.950414 -21.19234 -0.7663821 -52.03474 -59.677 -40.33809 -180 81.12307 -180 11.19081 2.158445 2.547235 63.42983 -50.7118 50.97515 -180 72.02472 -180 -7.112909 -7.444883 -12.41117 -0.4385894 19.30753 2.98901 7.871336 15.40184 -8.524561 -15.3735 10.27208 29.09491 3.791392 -20.53277 23.42702 17.50936 -9.937767 24.0291 -62.07419 -31.15778 15.9156 0 -65.949 0 18.95666 -1.452364 28.22778 -16.55758 -44.08487 0.08905017 68.49703 -12.8496 -6.804259 0 -34.94762 0 -10.10129 -18.75991 14.3488
-0.09494509 48.12161 0.04294665 -3.05686 -20.96384 -0.6466365 -51.98569 -59.78218 -40.32219 -180 81.14157 -180 11.21754 2.071396 2.3839 63.91011 -50.7597 51.51704 -180 72.02377 -180 -7.081625 -7.453827 -12.62936 -0.6721406 19.50755 2.856349 7.912969 15.34551 -8.67516 -14.86264 10.39876 29.24602 3.960699 -20.92039 23.9108 17.62511 -10.01804 23.89968 -61.85488 -31.0672 15.68648 0 -66.62764 0 19.15965 -0.9884207 29.24836 -15.90572 -45.22816 -0.5551305 69.12642 -12.55868 -5.65799 0 -30.48994 0 -10.9371 -18.70332 14.16658
-0.05237307 48.14794 0.08187914 -3.199886 -20.73098 -0.5489329 -51.94613 -59.864 -40.36168 -180 81.16673 -180 11.24477 1.989642 2.246266 64.42859 -50.78526 52.07717 -180 72.00915 -180 -7.050456 -7.476808 -12.86184 -0.8884808 19.69565 2.75644 7.897325 15.28826 -8.783745 -14.41461 10.48217 29.35913 4.120917 -21.324 24.30851 17.69721 -10.08774 23.74288 -61.72082 -30.94101 15.44455 0 -67.2865 0 19.35295 -0.6011782 30.1702 -15.31656 -46.27931 -1.137599 69.64374 -12.37587 -4.637683 0 -26.67387 0 -11.7847 -18.64295 13.91365
